solid OpenSCAD_Model
  facet normal -0.994522 -0.104529 0
    outer loop
      vertex -4.89074 -1.03956 0
      vertex -5 0 4
      vertex -5 0 0
    endloop
  endfacet
  facet normal -0.994522 -0.104529 0
    outer loop
      vertex -5 0 4
      vertex -4.89074 -1.03956 0
      vertex -4.89074 -1.03956 4
    endloop
  endfacet
  facet normal 0 0 -1
    outer loop
      vertex 14.8907 -1.03956 0
      vertex 12.4454 -0.519779 0
      vertex 12.5 0 0
    endloop
  endfacet
  facet normal 0 0 -1
    outer loop
      vertex 13.3457 -3.71572 0
      vertex 12.2839 -1.01684 0
      vertex 12.4454 -0.519779 0
    endloop
  endfacet
  facet normal 0 0 -1
    outer loop
      vertex 13.3457 -3.71572 0
      vertex 12.0225 -1.46946 0
      vertex 12.2839 -1.01684 0
    endloop
  endfacet
  facet normal 0 0 -1
    outer loop
      vertex 13.3457 -3.71572 0
      vertex 11.6728 -1.85786 0
      vertex 12.0225 -1.46946 0
    endloop
  endfacet
  facet normal 0 0 -1
    outer loop
      vertex 11.25 -2.16506 0
      vertex 12.5 -4.33013 0
      vertex 11.5451 -4.75528 0
    endloop
  endfacet
  facet normal 0 0 -1
    outer loop
      vertex 12.5 -4.33013 0
      vertex 11.25 -2.16506 0
      vertex 11.6728 -1.85786 0
    endloop
  endfacet
  facet normal 0 0 -1
    outer loop
      vertex 11.5451 -4.75528 0
      vertex 10.7725 -2.37764 0
      vertex 11.25 -2.16506 0
    endloop
  endfacet
  facet normal 0 0 -1
    outer loop
      vertex 10.5226 -4.97261 0
      vertex 10.7725 -2.37764 0
      vertex 11.5451 -4.75528 0
    endloop
  endfacet
  facet normal 0 0 -1
    outer loop
      vertex 10.5226 -4.97261 0
      vertex 10.2613 -2.4863 0
      vertex 10.7725 -2.37764 0
    endloop
  endfacet
  facet normal 0 0 -1
    outer loop
      vertex 10.5226 -4.97261 0
      vertex -0.261321 -2.4863 0
      vertex 10.2613 -2.4863 0
    endloop
  endfacet
  facet normal 0 0 -1
    outer loop
      vertex -0.522642 -4.97261 0
      vertex -0.261321 -2.4863 0
      vertex 10.5226 -4.97261 0
    endloop
  endfacet
  facet normal 0 0 -1
    outer loop
      vertex -0.522642 -4.97261 0
      vertex -0.772542 -2.37764 0
      vertex -0.261321 -2.4863 0
    endloop
  endfacet
  facet normal 0 0 -1
    outer loop
      vertex -1.54508 -4.75528 0
      vertex -0.772542 -2.37764 0
      vertex -0.522642 -4.97261 0
    endloop
  endfacet
  facet normal -0 0 -1
    outer loop
      vertex -0.772542 -2.37764 0
      vertex -1.54508 -4.75528 0
      vertex -1.25 -2.16506 0
    endloop
  endfacet
  facet normal 0 0 -1
    outer loop
      vertex -2.5 -4.33013 0
      vertex -1.25 -2.16506 0
      vertex -1.54508 -4.75528 0
    endloop
  endfacet
  facet normal -0 0 -1
    outer loop
      vertex -1.25 -2.16506 0
      vertex -2.5 -4.33013 0
      vertex -1.67283 -1.85786 0
    endloop
  endfacet
  facet normal 0 0 -1
    outer loop
      vertex -3.34565 -3.71572 0
      vertex -1.67283 -1.85786 0
      vertex -2.5 -4.33013 0
    endloop
  endfacet
  facet normal -0 0 -1
    outer loop
      vertex -1.67283 -1.85786 0
      vertex -3.34565 -3.71572 0
      vertex -2.02254 -1.46946 0
    endloop
  endfacet
  facet normal 0 0 -1
    outer loop
      vertex -4.04508 -2.93893 0
      vertex -2.02254 -1.46946 0
      vertex -3.34565 -3.71572 0
    endloop
  endfacet
  facet normal -0 0 -1
    outer loop
      vertex -2.02254 -1.46946 0
      vertex -4.04508 -2.93893 0
      vertex -2.28386 -1.01684 0
    endloop
  endfacet
  facet normal 0 0 -1
    outer loop
      vertex -4.56773 -2.03368 0
      vertex -2.28386 -1.01684 0
      vertex -4.04508 -2.93893 0
    endloop
  endfacet
  facet normal 0 0 -1
    outer loop
      vertex 12.5 0 0
      vertex 15 0 0
      vertex 14.8907 -1.03956 0
    endloop
  endfacet
  facet normal 0 0 -1
    outer loop
      vertex 12.4454 -0.519779 0
      vertex 14.8907 -1.03956 0
      vertex 14.5677 -2.03368 0
    endloop
  endfacet
  facet normal 0 0 -1
    outer loop
      vertex 15 0 0
      vertex 12.5 0 0
      vertex 14.8907 1.03956 0
    endloop
  endfacet
  facet normal 0 0 -1
    outer loop
      vertex 12.4454 -0.519779 0
      vertex 14.5677 -2.03368 0
      vertex 14.0451 -2.93893 0
    endloop
  endfacet
  facet normal 0 0 -1
    outer loop
      vertex 12.4454 0.519779 0
      vertex 14.8907 1.03956 0
      vertex 12.5 0 0
    endloop
  endfacet
  facet normal 0 0 -1
    outer loop
      vertex 12.4454 -0.519779 0
      vertex 14.0451 -2.93893 0
      vertex 13.3457 -3.71572 0
    endloop
  endfacet
  facet normal -0 0 -1
    outer loop
      vertex 14.8907 1.03956 0
      vertex 12.4454 0.519779 0
      vertex 14.5677 2.03368 0
    endloop
  endfacet
  facet normal 0 0 -1
    outer loop
      vertex 11.6728 -1.85786 0
      vertex 13.3457 -3.71572 0
      vertex 12.5 -4.33013 0
    endloop
  endfacet
  facet normal 0 0 -1
    outer loop
      vertex 12.2839 1.01684 0
      vertex 14.5677 2.03368 0
      vertex 12.4454 0.519779 0
    endloop
  endfacet
  facet normal -0 0 -1
    outer loop
      vertex 14.5677 2.03368 0
      vertex 12.2839 1.01684 0
      vertex 14.0451 2.93893 0
    endloop
  endfacet
  facet normal 0 0 -1
    outer loop
      vertex 12.0225 1.46946 0
      vertex 14.0451 2.93893 0
      vertex 12.2839 1.01684 0
    endloop
  endfacet
  facet normal -0 0 -1
    outer loop
      vertex 14.0451 2.93893 0
      vertex 12.0225 1.46946 0
      vertex 13.3457 3.71572 0
    endloop
  endfacet
  facet normal 0 0 -1
    outer loop
      vertex 11.6728 1.85786 0
      vertex 13.3457 3.71572 0
      vertex 12.0225 1.46946 0
    endloop
  endfacet
  facet normal -0 0 -1
    outer loop
      vertex 13.3457 3.71572 0
      vertex 11.6728 1.85786 0
      vertex 12.5 4.33013 0
    endloop
  endfacet
  facet normal 0 0 -1
    outer loop
      vertex 11.25 2.16506 0
      vertex 12.5 4.33013 0
      vertex 11.6728 1.85786 0
    endloop
  endfacet
  facet normal -0 0 -1
    outer loop
      vertex 12.5 4.33013 0
      vertex 11.25 2.16506 0
      vertex 11.5451 4.75528 0
    endloop
  endfacet
  facet normal 0 0 -1
    outer loop
      vertex 10.7725 2.37764 0
      vertex 11.5451 4.75528 0
      vertex 11.25 2.16506 0
    endloop
  endfacet
  facet normal 0 0 -1
    outer loop
      vertex 10.7725 2.37764 0
      vertex 10.5226 4.97261 0
      vertex 11.5451 4.75528 0
    endloop
  endfacet
  facet normal 0 0 -1
    outer loop
      vertex 10.2613 2.4863 0
      vertex 10.5226 4.97261 0
      vertex 10.7725 2.37764 0
    endloop
  endfacet
  facet normal 0 0 -1
    outer loop
      vertex 6.5 4.97261 0
      vertex 10.2613 2.4863 0
      vertex 6.5 2.4863 0
    endloop
  endfacet
  facet normal 0 0 -1
    outer loop
      vertex 10.2613 2.4863 0
      vertex 6.5 4.97261 0
      vertex 10.5226 4.97261 0
    endloop
  endfacet
  facet normal 0 0 -1
    outer loop
      vertex -0.261321 2.4863 0
      vertex 3.5 4.97261 0
      vertex 3.5 2.4863 0
    endloop
  endfacet
  facet normal 0 0 -1
    outer loop
      vertex -0.261321 2.4863 0
      vertex -0.522642 4.97261 0
      vertex 3.5 4.97261 0
    endloop
  endfacet
  facet normal 0 0 -1
    outer loop
      vertex -0.772542 2.37764 0
      vertex -0.522642 4.97261 0
      vertex -0.261321 2.4863 0
    endloop
  endfacet
  facet normal 0 0 -1
    outer loop
      vertex -1.54508 4.75528 0
      vertex -0.772542 2.37764 0
      vertex -1.25 2.16506 0
    endloop
  endfacet
  facet normal 0 0 -1
    outer loop
      vertex -0.772542 2.37764 0
      vertex -1.54508 4.75528 0
      vertex -0.522642 4.97261 0
    endloop
  endfacet
  facet normal 0 0 -1
    outer loop
      vertex -2.5 4.33013 0
      vertex -1.25 2.16506 0
      vertex -1.67283 1.85786 0
    endloop
  endfacet
  facet normal 0 0 -1
    outer loop
      vertex -3.34565 3.71572 0
      vertex -1.67283 1.85786 0
      vertex -2.02254 1.46946 0
    endloop
  endfacet
  facet normal 0 0 -1
    outer loop
      vertex -4.04508 2.93893 0
      vertex -2.02254 1.46946 0
      vertex -2.28386 1.01684 0
    endloop
  endfacet
  facet normal 0 0 -1
    outer loop
      vertex -4.56773 2.03368 0
      vertex -2.28386 1.01684 0
      vertex -2.44537 0.519779 0
    endloop
  endfacet
  facet normal 0 0 -1
    outer loop
      vertex -1.25 2.16506 0
      vertex -2.5 4.33013 0
      vertex -1.54508 4.75528 0
    endloop
  endfacet
  facet normal 0 0 -1
    outer loop
      vertex -4.89074 1.03956 0
      vertex -2.44537 0.519779 0
      vertex -2.5 0 0
    endloop
  endfacet
  facet normal -0 0 -1
    outer loop
      vertex -2.28386 -1.01684 0
      vertex -4.56773 -2.03368 0
      vertex -2.44537 -0.519779 0
    endloop
  endfacet
  facet normal 0 0 -1
    outer loop
      vertex -1.67283 1.85786 0
      vertex -3.34565 3.71572 0
      vertex -2.5 4.33013 0
    endloop
  endfacet
  facet normal 0 0 -1
    outer loop
      vertex -4.89074 -1.03956 0
      vertex -2.44537 -0.519779 0
      vertex -4.56773 -2.03368 0
    endloop
  endfacet
  facet normal 0 0 -1
    outer loop
      vertex -2.02254 1.46946 0
      vertex -4.04508 2.93893 0
      vertex -3.34565 3.71572 0
    endloop
  endfacet
  facet normal -0 0 -1
    outer loop
      vertex -2.44537 -0.519779 0
      vertex -4.89074 -1.03956 0
      vertex -2.5 0 0
    endloop
  endfacet
  facet normal 0 0 -1
    outer loop
      vertex -2.28386 1.01684 0
      vertex -4.56773 2.03368 0
      vertex -4.04508 2.93893 0
    endloop
  endfacet
  facet normal 0 0 -1
    outer loop
      vertex -5 0 0
      vertex -2.5 0 0
      vertex -4.89074 -1.03956 0
    endloop
  endfacet
  facet normal 0 0 -1
    outer loop
      vertex -2.44537 0.519779 0
      vertex -4.89074 1.03956 0
      vertex -4.56773 2.03368 0
    endloop
  endfacet
  facet normal 0 0 -1
    outer loop
      vertex -2.5 0 0
      vertex -5 0 0
      vertex -4.89074 1.03956 0
    endloop
  endfacet
  facet normal -0.207911 0.978148 0
    outer loop
      vertex -0.522642 4.97261 0
      vertex -1.54508 4.75528 4
      vertex -0.522642 4.97261 4
    endloop
  endfacet
  facet normal -0.207911 0.978148 0
    outer loop
      vertex -1.54508 4.75528 4
      vertex -0.522642 4.97261 0
      vertex -1.54508 4.75528 0
    endloop
  endfacet
  facet normal 0.994522 0.104529 0
    outer loop
      vertex 15 0 4
      vertex 14.8907 1.03956 0
      vertex 14.8907 1.03956 4
    endloop
  endfacet
  facet normal 0.994522 0.104529 0
    outer loop
      vertex 14.8907 1.03956 0
      vertex 15 0 4
      vertex 15 0 0
    endloop
  endfacet
  facet normal -0.587785 -0.809017 0
    outer loop
      vertex -3.34565 -3.71572 0
      vertex -2.5 -4.33013 4
      vertex -3.34565 -3.71572 4
    endloop
  endfacet
  facet normal -0.587785 -0.809017 -0
    outer loop
      vertex -2.5 -4.33013 4
      vertex -3.34565 -3.71572 0
      vertex -2.5 -4.33013 0
    endloop
  endfacet
  facet normal -0.994522 0.104529 0
    outer loop
      vertex -5 0 0
      vertex -4.89074 1.03956 4
      vertex -4.89074 1.03956 0
    endloop
  endfacet
  facet normal -0.994522 0.104529 0
    outer loop
      vertex -4.89074 1.03956 4
      vertex -5 0 0
      vertex -5 0 4
    endloop
  endfacet
  facet normal 0 0 1
    outer loop
      vertex 14.8907 1.03956 4
      vertex 12.4454 0.519779 4
      vertex 12.5 0 4
    endloop
  endfacet
  facet normal 0 0 1
    outer loop
      vertex 13.3457 3.71572 4
      vertex 12.2839 1.01684 4
      vertex 12.4454 0.519779 4
    endloop
  endfacet
  facet normal 0 0 1
    outer loop
      vertex 13.3457 3.71572 4
      vertex 12.0225 1.46946 4
      vertex 12.2839 1.01684 4
    endloop
  endfacet
  facet normal 0 0 1
    outer loop
      vertex 13.3457 3.71572 4
      vertex 11.6728 1.85786 4
      vertex 12.0225 1.46946 4
    endloop
  endfacet
  facet normal 0 0 1
    outer loop
      vertex 11.25 2.16506 4
      vertex 12.5 4.33013 4
      vertex 11.5451 4.75528 4
    endloop
  endfacet
  facet normal 0 0 1
    outer loop
      vertex 12.5 4.33013 4
      vertex 11.25 2.16506 4
      vertex 11.6728 1.85786 4
    endloop
  endfacet
  facet normal 0 0 1
    outer loop
      vertex 11.5451 4.75528 4
      vertex 10.7725 2.37764 4
      vertex 11.25 2.16506 4
    endloop
  endfacet
  facet normal 0 0 1
    outer loop
      vertex 10.5226 4.97261 4
      vertex 10.7725 2.37764 4
      vertex 11.5451 4.75528 4
    endloop
  endfacet
  facet normal 0 0 1
    outer loop
      vertex 10.5226 4.97261 4
      vertex 10.2613 2.4863 4
      vertex 10.7725 2.37764 4
    endloop
  endfacet
  facet normal -0 0 1
    outer loop
      vertex 6.5 4.97261 4
      vertex 10.2613 2.4863 4
      vertex 10.5226 4.97261 4
    endloop
  endfacet
  facet normal 0 0 1
    outer loop
      vertex 10.2613 2.4863 4
      vertex 6.5 4.97261 4
      vertex 6.5 2.4863 4
    endloop
  endfacet
  facet normal 0 0 1
    outer loop
      vertex 12.5 0 4
      vertex 15 0 4
      vertex 14.8907 1.03956 4
    endloop
  endfacet
  facet normal 0 0 1
    outer loop
      vertex 12.4454 0.519779 4
      vertex 14.8907 1.03956 4
      vertex 14.5677 2.03368 4
    endloop
  endfacet
  facet normal 0 0 1
    outer loop
      vertex 15 0 4
      vertex 12.5 0 4
      vertex 14.8907 -1.03956 4
    endloop
  endfacet
  facet normal 0 0 1
    outer loop
      vertex 12.4454 0.519779 4
      vertex 14.5677 2.03368 4
      vertex 14.0451 2.93893 4
    endloop
  endfacet
  facet normal -0 0 1
    outer loop
      vertex 12.4454 -0.519779 4
      vertex 14.8907 -1.03956 4
      vertex 12.5 0 4
    endloop
  endfacet
  facet normal 0 0 1
    outer loop
      vertex 12.4454 0.519779 4
      vertex 14.0451 2.93893 4
      vertex 13.3457 3.71572 4
    endloop
  endfacet
  facet normal 0 0 1
    outer loop
      vertex 14.8907 -1.03956 4
      vertex 12.4454 -0.519779 4
      vertex 14.5677 -2.03368 4
    endloop
  endfacet
  facet normal 0 0 1
    outer loop
      vertex 11.6728 1.85786 4
      vertex 13.3457 3.71572 4
      vertex 12.5 4.33013 4
    endloop
  endfacet
  facet normal -0 0 1
    outer loop
      vertex 12.2839 -1.01684 4
      vertex 14.5677 -2.03368 4
      vertex 12.4454 -0.519779 4
    endloop
  endfacet
  facet normal 0 0 1
    outer loop
      vertex 14.5677 -2.03368 4
      vertex 12.2839 -1.01684 4
      vertex 14.0451 -2.93893 4
    endloop
  endfacet
  facet normal -0 0 1
    outer loop
      vertex 12.0225 -1.46946 4
      vertex 14.0451 -2.93893 4
      vertex 12.2839 -1.01684 4
    endloop
  endfacet
  facet normal 0 0 1
    outer loop
      vertex 14.0451 -2.93893 4
      vertex 12.0225 -1.46946 4
      vertex 13.3457 -3.71572 4
    endloop
  endfacet
  facet normal -0 0 1
    outer loop
      vertex 11.6728 -1.85786 4
      vertex 13.3457 -3.71572 4
      vertex 12.0225 -1.46946 4
    endloop
  endfacet
  facet normal 0 0 1
    outer loop
      vertex 13.3457 -3.71572 4
      vertex 11.6728 -1.85786 4
      vertex 12.5 -4.33013 4
    endloop
  endfacet
  facet normal -0 0 1
    outer loop
      vertex 11.25 -2.16506 4
      vertex 12.5 -4.33013 4
      vertex 11.6728 -1.85786 4
    endloop
  endfacet
  facet normal 0 0 1
    outer loop
      vertex 12.5 -4.33013 4
      vertex 11.25 -2.16506 4
      vertex 11.5451 -4.75528 4
    endloop
  endfacet
  facet normal -0 0 1
    outer loop
      vertex 10.7725 -2.37764 4
      vertex 11.5451 -4.75528 4
      vertex 11.25 -2.16506 4
    endloop
  endfacet
  facet normal 0 0 1
    outer loop
      vertex 10.7725 -2.37764 4
      vertex 10.5226 -4.97261 4
      vertex 11.5451 -4.75528 4
    endloop
  endfacet
  facet normal -0 0 1
    outer loop
      vertex 10.2613 -2.4863 4
      vertex 10.5226 -4.97261 4
      vertex 10.7725 -2.37764 4
    endloop
  endfacet
  facet normal -0 0 1
    outer loop
      vertex -0.261321 -2.4863 4
      vertex 10.5226 -4.97261 4
      vertex 10.2613 -2.4863 4
    endloop
  endfacet
  facet normal 0 0 1
    outer loop
      vertex -0.261321 -2.4863 4
      vertex -0.522642 -4.97261 4
      vertex 10.5226 -4.97261 4
    endloop
  endfacet
  facet normal 0 0 1
    outer loop
      vertex -0.772542 -2.37764 4
      vertex -0.522642 -4.97261 4
      vertex -0.261321 -2.4863 4
    endloop
  endfacet
  facet normal 0 0 1
    outer loop
      vertex -1.54508 -4.75528 4
      vertex -0.772542 -2.37764 4
      vertex -1.25 -2.16506 4
    endloop
  endfacet
  facet normal 0 0 1
    outer loop
      vertex -0.772542 -2.37764 4
      vertex -1.54508 -4.75528 4
      vertex -0.522642 -4.97261 4
    endloop
  endfacet
  facet normal 0 0 1
    outer loop
      vertex -2.5 -4.33013 4
      vertex -1.25 -2.16506 4
      vertex -1.67283 -1.85786 4
    endloop
  endfacet
  facet normal 0 0 1
    outer loop
      vertex -3.34565 -3.71572 4
      vertex -1.67283 -1.85786 4
      vertex -2.02254 -1.46946 4
    endloop
  endfacet
  facet normal 0 0 1
    outer loop
      vertex -4.04508 -2.93893 4
      vertex -2.02254 -1.46946 4
      vertex -2.28386 -1.01684 4
    endloop
  endfacet
  facet normal 0 0 1
    outer loop
      vertex -4.56773 -2.03368 4
      vertex -2.28386 -1.01684 4
      vertex -2.44537 -0.519779 4
    endloop
  endfacet
  facet normal 0 0 1
    outer loop
      vertex -1.25 -2.16506 4
      vertex -2.5 -4.33013 4
      vertex -1.54508 -4.75528 4
    endloop
  endfacet
  facet normal 0 0 1
    outer loop
      vertex -4.89074 -1.03956 4
      vertex -2.44537 -0.519779 4
      vertex -2.5 0 4
    endloop
  endfacet
  facet normal 0 0 1
    outer loop
      vertex 3.5 4.97261 4
      vertex -0.261321 2.4863 4
      vertex 3.5 2.4863 4
    endloop
  endfacet
  facet normal -0 0 1
    outer loop
      vertex -0.522642 4.97261 4
      vertex -0.261321 2.4863 4
      vertex 3.5 4.97261 4
    endloop
  endfacet
  facet normal 0 0 1
    outer loop
      vertex -0.522642 4.97261 4
      vertex -0.772542 2.37764 4
      vertex -0.261321 2.4863 4
    endloop
  endfacet
  facet normal -0 0 1
    outer loop
      vertex -1.54508 4.75528 4
      vertex -0.772542 2.37764 4
      vertex -0.522642 4.97261 4
    endloop
  endfacet
  facet normal 0 0 1
    outer loop
      vertex -0.772542 2.37764 4
      vertex -1.54508 4.75528 4
      vertex -1.25 2.16506 4
    endloop
  endfacet
  facet normal -0 0 1
    outer loop
      vertex -2.5 4.33013 4
      vertex -1.25 2.16506 4
      vertex -1.54508 4.75528 4
    endloop
  endfacet
  facet normal 0 0 1
    outer loop
      vertex -1.25 2.16506 4
      vertex -2.5 4.33013 4
      vertex -1.67283 1.85786 4
    endloop
  endfacet
  facet normal -0 0 1
    outer loop
      vertex -3.34565 3.71572 4
      vertex -1.67283 1.85786 4
      vertex -2.5 4.33013 4
    endloop
  endfacet
  facet normal 0 0 1
    outer loop
      vertex -1.67283 1.85786 4
      vertex -3.34565 3.71572 4
      vertex -2.02254 1.46946 4
    endloop
  endfacet
  facet normal -0 0 1
    outer loop
      vertex -4.04508 2.93893 4
      vertex -2.02254 1.46946 4
      vertex -3.34565 3.71572 4
    endloop
  endfacet
  facet normal 0 0 1
    outer loop
      vertex -2.02254 1.46946 4
      vertex -4.04508 2.93893 4
      vertex -2.28386 1.01684 4
    endloop
  endfacet
  facet normal -0 0 1
    outer loop
      vertex -4.56773 2.03368 4
      vertex -2.28386 1.01684 4
      vertex -4.04508 2.93893 4
    endloop
  endfacet
  facet normal 0 0 1
    outer loop
      vertex -2.28386 1.01684 4
      vertex -4.56773 2.03368 4
      vertex -2.44537 0.519779 4
    endloop
  endfacet
  facet normal 0 0 1
    outer loop
      vertex -1.67283 -1.85786 4
      vertex -3.34565 -3.71572 4
      vertex -2.5 -4.33013 4
    endloop
  endfacet
  facet normal -0 0 1
    outer loop
      vertex -4.89074 1.03956 4
      vertex -2.44537 0.519779 4
      vertex -4.56773 2.03368 4
    endloop
  endfacet
  facet normal 0 0 1
    outer loop
      vertex -2.02254 -1.46946 4
      vertex -4.04508 -2.93893 4
      vertex -3.34565 -3.71572 4
    endloop
  endfacet
  facet normal 0 0 1
    outer loop
      vertex -2.44537 0.519779 4
      vertex -4.89074 1.03956 4
      vertex -2.5 0 4
    endloop
  endfacet
  facet normal 0 0 1
    outer loop
      vertex -2.28386 -1.01684 4
      vertex -4.56773 -2.03368 4
      vertex -4.04508 -2.93893 4
    endloop
  endfacet
  facet normal 0 0 1
    outer loop
      vertex -5 0 4
      vertex -2.5 0 4
      vertex -4.89074 1.03956 4
    endloop
  endfacet
  facet normal 0 0 1
    outer loop
      vertex -2.44537 -0.519779 4
      vertex -4.89074 -1.03956 4
      vertex -4.56773 -2.03368 4
    endloop
  endfacet
  facet normal 0 0 1
    outer loop
      vertex -2.5 0 4
      vertex -5 0 4
      vertex -4.89074 -1.03956 4
    endloop
  endfacet
  facet normal 0 1 -0
    outer loop
      vertex 3.5 4.97261 0
      vertex -0.522642 4.97261 4
      vertex 3.5 4.97261 4
    endloop
  endfacet
  facet normal 0 1 0
    outer loop
      vertex -0.522642 4.97261 4
      vertex 3.5 4.97261 0
      vertex -0.522642 4.97261 0
    endloop
  endfacet
  facet normal 0 1 -0
    outer loop
      vertex 10.5226 4.97261 0
      vertex 6.5 4.97261 4
      vertex 10.5226 4.97261 4
    endloop
  endfacet
  facet normal 0 1 0
    outer loop
      vertex 6.5 4.97261 4
      vertex 10.5226 4.97261 0
      vertex 6.5 4.97261 0
    endloop
  endfacet
  facet normal 0.866025 -0.5 0
    outer loop
      vertex 14.0451 -2.93893 4
      vertex 14.5677 -2.03368 0
      vertex 14.5677 -2.03368 4
    endloop
  endfacet
  facet normal 0.866025 -0.5 0
    outer loop
      vertex 14.5677 -2.03368 0
      vertex 14.0451 -2.93893 4
      vertex 14.0451 -2.93893 0
    endloop
  endfacet
  facet normal -0.406737 -0.913545 0
    outer loop
      vertex -2.5 -4.33013 0
      vertex -1.54508 -4.75528 4
      vertex -2.5 -4.33013 4
    endloop
  endfacet
  facet normal -0.406737 -0.913545 -0
    outer loop
      vertex -1.54508 -4.75528 4
      vertex -2.5 -4.33013 0
      vertex -1.54508 -4.75528 0
    endloop
  endfacet
  facet normal -0.866025 0.5 0
    outer loop
      vertex -4.56773 2.03368 0
      vertex -4.04508 2.93893 4
      vertex -4.04508 2.93893 0
    endloop
  endfacet
  facet normal -0.866025 0.5 0
    outer loop
      vertex -4.04508 2.93893 4
      vertex -4.56773 2.03368 0
      vertex -4.56773 2.03368 4
    endloop
  endfacet
  facet normal 0.406737 0.913545 -0
    outer loop
      vertex 12.5 4.33013 0
      vertex 11.5451 4.75528 4
      vertex 12.5 4.33013 4
    endloop
  endfacet
  facet normal 0.406737 0.913545 0
    outer loop
      vertex 11.5451 4.75528 4
      vertex 12.5 4.33013 0
      vertex 11.5451 4.75528 0
    endloop
  endfacet
  facet normal 0.207911 0.978148 -0
    outer loop
      vertex 11.5451 4.75528 0
      vertex 10.5226 4.97261 4
      vertex 11.5451 4.75528 4
    endloop
  endfacet
  facet normal 0.207911 0.978148 0
    outer loop
      vertex 10.5226 4.97261 4
      vertex 11.5451 4.75528 0
      vertex 10.5226 4.97261 0
    endloop
  endfacet
  facet normal 0.994522 -0.104529 0
    outer loop
      vertex 14.8907 -1.03956 4
      vertex 15 0 0
      vertex 15 0 4
    endloop
  endfacet
  facet normal 0.994522 -0.104529 0
    outer loop
      vertex 15 0 0
      vertex 14.8907 -1.03956 4
      vertex 14.8907 -1.03956 0
    endloop
  endfacet
  facet normal 0.587785 -0.809017 0
    outer loop
      vertex 12.5 -4.33013 0
      vertex 13.3457 -3.71572 4
      vertex 12.5 -4.33013 4
    endloop
  endfacet
  facet normal 0.587785 -0.809017 0
    outer loop
      vertex 13.3457 -3.71572 4
      vertex 12.5 -4.33013 0
      vertex 13.3457 -3.71572 0
    endloop
  endfacet
  facet normal 0.743145 -0.669131 0
    outer loop
      vertex 13.3457 -3.71572 4
      vertex 14.0451 -2.93893 0
      vertex 14.0451 -2.93893 4
    endloop
  endfacet
  facet normal 0.743145 -0.669131 0
    outer loop
      vertex 14.0451 -2.93893 0
      vertex 13.3457 -3.71572 4
      vertex 13.3457 -3.71572 0
    endloop
  endfacet
  facet normal 0 -1 0
    outer loop
      vertex -0.522642 -4.97261 0
      vertex 10.5226 -4.97261 4
      vertex -0.522642 -4.97261 4
    endloop
  endfacet
  facet normal 0 -1 -0
    outer loop
      vertex 10.5226 -4.97261 4
      vertex -0.522642 -4.97261 0
      vertex 10.5226 -4.97261 0
    endloop
  endfacet
  facet normal -0.743145 0.669131 0
    outer loop
      vertex -4.04508 2.93893 0
      vertex -3.34565 3.71572 4
      vertex -3.34565 3.71572 0
    endloop
  endfacet
  facet normal -0.743145 0.669131 0
    outer loop
      vertex -3.34565 3.71572 4
      vertex -4.04508 2.93893 0
      vertex -4.04508 2.93893 4
    endloop
  endfacet
  facet normal -0.587785 0.809017 0
    outer loop
      vertex -2.5 4.33013 0
      vertex -3.34565 3.71572 4
      vertex -2.5 4.33013 4
    endloop
  endfacet
  facet normal -0.587785 0.809017 0
    outer loop
      vertex -3.34565 3.71572 4
      vertex -2.5 4.33013 0
      vertex -3.34565 3.71572 0
    endloop
  endfacet
  facet normal 0.866025 0.5 0
    outer loop
      vertex 14.5677 2.03368 4
      vertex 14.0451 2.93893 0
      vertex 14.0451 2.93893 4
    endloop
  endfacet
  facet normal 0.866025 0.5 0
    outer loop
      vertex 14.0451 2.93893 0
      vertex 14.5677 2.03368 4
      vertex 14.5677 2.03368 0
    endloop
  endfacet
  facet normal 0.951057 0.309017 0
    outer loop
      vertex 14.8907 1.03956 4
      vertex 14.5677 2.03368 0
      vertex 14.5677 2.03368 4
    endloop
  endfacet
  facet normal 0.951057 0.309017 0
    outer loop
      vertex 14.5677 2.03368 0
      vertex 14.8907 1.03956 4
      vertex 14.8907 1.03956 0
    endloop
  endfacet
  facet normal 0.951057 -0.309017 0
    outer loop
      vertex 14.5677 -2.03368 4
      vertex 14.8907 -1.03956 0
      vertex 14.8907 -1.03956 4
    endloop
  endfacet
  facet normal 0.951057 -0.309017 0
    outer loop
      vertex 14.8907 -1.03956 0
      vertex 14.5677 -2.03368 4
      vertex 14.5677 -2.03368 0
    endloop
  endfacet
  facet normal 0.406737 -0.913545 0
    outer loop
      vertex 11.5451 -4.75528 0
      vertex 12.5 -4.33013 4
      vertex 11.5451 -4.75528 4
    endloop
  endfacet
  facet normal 0.406737 -0.913545 0
    outer loop
      vertex 12.5 -4.33013 4
      vertex 11.5451 -4.75528 0
      vertex 12.5 -4.33013 0
    endloop
  endfacet
  facet normal 0.207911 -0.978148 0
    outer loop
      vertex 10.5226 -4.97261 0
      vertex 11.5451 -4.75528 4
      vertex 10.5226 -4.97261 4
    endloop
  endfacet
  facet normal 0.207911 -0.978148 0
    outer loop
      vertex 11.5451 -4.75528 4
      vertex 10.5226 -4.97261 0
      vertex 11.5451 -4.75528 0
    endloop
  endfacet
  facet normal -0.207911 -0.978148 0
    outer loop
      vertex -1.54508 -4.75528 0
      vertex -0.522642 -4.97261 4
      vertex -1.54508 -4.75528 4
    endloop
  endfacet
  facet normal -0.207911 -0.978148 -0
    outer loop
      vertex -0.522642 -4.97261 4
      vertex -1.54508 -4.75528 0
      vertex -0.522642 -4.97261 0
    endloop
  endfacet
  facet normal -0.743145 -0.669131 0
    outer loop
      vertex -3.34565 -3.71572 0
      vertex -4.04508 -2.93893 4
      vertex -4.04508 -2.93893 0
    endloop
  endfacet
  facet normal -0.743145 -0.669131 0
    outer loop
      vertex -4.04508 -2.93893 4
      vertex -3.34565 -3.71572 0
      vertex -3.34565 -3.71572 4
    endloop
  endfacet
  facet normal -0.951057 0.309017 0
    outer loop
      vertex -4.89074 1.03956 0
      vertex -4.56773 2.03368 4
      vertex -4.56773 2.03368 0
    endloop
  endfacet
  facet normal -0.951057 0.309017 0
    outer loop
      vertex -4.56773 2.03368 4
      vertex -4.89074 1.03956 0
      vertex -4.89074 1.03956 4
    endloop
  endfacet
  facet normal -0.406737 0.913545 0
    outer loop
      vertex -1.54508 4.75528 0
      vertex -2.5 4.33013 4
      vertex -1.54508 4.75528 4
    endloop
  endfacet
  facet normal -0.406737 0.913545 0
    outer loop
      vertex -2.5 4.33013 4
      vertex -1.54508 4.75528 0
      vertex -2.5 4.33013 0
    endloop
  endfacet
  facet normal 0.587785 0.809017 -0
    outer loop
      vertex 13.3457 3.71572 0
      vertex 12.5 4.33013 4
      vertex 13.3457 3.71572 4
    endloop
  endfacet
  facet normal 0.587785 0.809017 0
    outer loop
      vertex 12.5 4.33013 4
      vertex 13.3457 3.71572 0
      vertex 12.5 4.33013 0
    endloop
  endfacet
  facet normal 0.743145 0.669131 0
    outer loop
      vertex 14.0451 2.93893 4
      vertex 13.3457 3.71572 0
      vertex 13.3457 3.71572 4
    endloop
  endfacet
  facet normal 0.743145 0.669131 0
    outer loop
      vertex 13.3457 3.71572 0
      vertex 14.0451 2.93893 4
      vertex 14.0451 2.93893 0
    endloop
  endfacet
  facet normal -0.866025 -0.5 0
    outer loop
      vertex -4.04508 -2.93893 0
      vertex -4.56773 -2.03368 4
      vertex -4.56773 -2.03368 0
    endloop
  endfacet
  facet normal -0.866025 -0.5 0
    outer loop
      vertex -4.56773 -2.03368 4
      vertex -4.04508 -2.93893 0
      vertex -4.04508 -2.93893 4
    endloop
  endfacet
  facet normal -0.951057 -0.309017 0
    outer loop
      vertex -4.56773 -2.03368 0
      vertex -4.89074 -1.03956 4
      vertex -4.89074 -1.03956 0
    endloop
  endfacet
  facet normal -0.951057 -0.309017 0
    outer loop
      vertex -4.89074 -1.03956 4
      vertex -4.56773 -2.03368 0
      vertex -4.56773 -2.03368 4
    endloop
  endfacet
  facet normal 0.994522 -0.104529 0
    outer loop
      vertex -2.5 0 4
      vertex -2.44537 0.519779 0
      vertex -2.44537 0.519779 4
    endloop
  endfacet
  facet normal 0.994522 -0.104529 0
    outer loop
      vertex -2.44537 0.519779 0
      vertex -2.5 0 4
      vertex -2.5 0 0
    endloop
  endfacet
  facet normal 0 1 -0
    outer loop
      vertex 10.2613 -2.4863 0
      vertex -0.261321 -2.4863 4
      vertex 10.2613 -2.4863 4
    endloop
  endfacet
  facet normal 0 1 0
    outer loop
      vertex -0.261321 -2.4863 4
      vertex 10.2613 -2.4863 0
      vertex -0.261321 -2.4863 0
    endloop
  endfacet
  facet normal 0 -1 0
    outer loop
      vertex -0.261321 2.4863 0
      vertex 3.5 2.4863 4
      vertex -0.261321 2.4863 4
    endloop
  endfacet
  facet normal 0 -1 -0
    outer loop
      vertex 3.5 2.4863 4
      vertex -0.261321 2.4863 0
      vertex 3.5 2.4863 0
    endloop
  endfacet
  facet normal 0 -1 0
    outer loop
      vertex 6.5 2.4863 0
      vertex 10.2613 2.4863 4
      vertex 6.5 2.4863 4
    endloop
  endfacet
  facet normal 0 -1 -0
    outer loop
      vertex 10.2613 2.4863 4
      vertex 6.5 2.4863 0
      vertex 10.2613 2.4863 0
    endloop
  endfacet
  facet normal -0.994522 0.104529 0
    outer loop
      vertex 12.4454 -0.519779 0
      vertex 12.5 0 4
      vertex 12.5 0 0
    endloop
  endfacet
  facet normal -0.994522 0.104529 0
    outer loop
      vertex 12.5 0 4
      vertex 12.4454 -0.519779 0
      vertex 12.4454 -0.519779 4
    endloop
  endfacet
  facet normal -0.994522 -0.104529 0
    outer loop
      vertex 12.5 0 0
      vertex 12.4454 0.519779 4
      vertex 12.4454 0.519779 0
    endloop
  endfacet
  facet normal -0.994522 -0.104529 0
    outer loop
      vertex 12.4454 0.519779 4
      vertex 12.5 0 0
      vertex 12.5 0 4
    endloop
  endfacet
  facet normal 0.587786 0.809017 -0
    outer loop
      vertex -1.25 -2.16506 0
      vertex -1.67283 -1.85786 4
      vertex -1.25 -2.16506 4
    endloop
  endfacet
  facet normal 0.587786 0.809017 0
    outer loop
      vertex -1.67283 -1.85786 4
      vertex -1.25 -2.16506 0
      vertex -1.67283 -1.85786 0
    endloop
  endfacet
  facet normal 0.994522 0.104529 0
    outer loop
      vertex -2.44537 -0.519779 4
      vertex -2.5 0 0
      vertex -2.5 0 4
    endloop
  endfacet
  facet normal 0.994522 0.104529 0
    outer loop
      vertex -2.5 0 0
      vertex -2.44537 -0.519779 4
      vertex -2.44537 -0.519779 0
    endloop
  endfacet
  facet normal 0.743145 -0.669131 0
    outer loop
      vertex -2.02254 1.46946 4
      vertex -1.67283 1.85786 0
      vertex -1.67283 1.85786 4
    endloop
  endfacet
  facet normal 0.743145 -0.669131 0
    outer loop
      vertex -1.67283 1.85786 0
      vertex -2.02254 1.46946 4
      vertex -2.02254 1.46946 0
    endloop
  endfacet
  facet normal -0.743145 -0.669131 0
    outer loop
      vertex 12.0225 1.46946 0
      vertex 11.6728 1.85786 4
      vertex 11.6728 1.85786 0
    endloop
  endfacet
  facet normal -0.743145 -0.669131 0
    outer loop
      vertex 11.6728 1.85786 4
      vertex 12.0225 1.46946 0
      vertex 12.0225 1.46946 4
    endloop
  endfacet
  facet normal -0.587786 0.809017 0
    outer loop
      vertex 11.6728 -1.85786 0
      vertex 11.25 -2.16506 4
      vertex 11.6728 -1.85786 4
    endloop
  endfacet
  facet normal -0.587786 0.809017 0
    outer loop
      vertex 11.25 -2.16506 4
      vertex 11.6728 -1.85786 0
      vertex 11.25 -2.16506 0
    endloop
  endfacet
  facet normal -0.207912 0.978148 0
    outer loop
      vertex 10.7725 -2.37764 0
      vertex 10.2613 -2.4863 4
      vertex 10.7725 -2.37764 4
    endloop
  endfacet
  facet normal -0.207912 0.978148 0
    outer loop
      vertex 10.2613 -2.4863 4
      vertex 10.7725 -2.37764 0
      vertex 10.2613 -2.4863 0
    endloop
  endfacet
  facet normal -0.951056 -0.309018 0
    outer loop
      vertex 12.4454 0.519779 0
      vertex 12.2839 1.01684 4
      vertex 12.2839 1.01684 0
    endloop
  endfacet
  facet normal -0.951056 -0.309018 0
    outer loop
      vertex 12.2839 1.01684 4
      vertex 12.4454 0.519779 0
      vertex 12.4454 0.519779 4
    endloop
  endfacet
  facet normal 0.406736 0.913546 -0
    outer loop
      vertex -0.772542 -2.37764 0
      vertex -1.25 -2.16506 4
      vertex -0.772542 -2.37764 4
    endloop
  endfacet
  facet normal 0.406736 0.913546 0
    outer loop
      vertex -1.25 -2.16506 4
      vertex -0.772542 -2.37764 0
      vertex -1.25 -2.16506 0
    endloop
  endfacet
  facet normal 0.743145 0.669131 0
    outer loop
      vertex -1.67283 -1.85786 4
      vertex -2.02254 -1.46946 0
      vertex -2.02254 -1.46946 4
    endloop
  endfacet
  facet normal 0.743145 0.669131 0
    outer loop
      vertex -2.02254 -1.46946 0
      vertex -1.67283 -1.85786 4
      vertex -1.67283 -1.85786 0
    endloop
  endfacet
  facet normal 0.951056 0.309018 0
    outer loop
      vertex -2.28386 -1.01684 4
      vertex -2.44537 -0.519779 0
      vertex -2.44537 -0.519779 4
    endloop
  endfacet
  facet normal 0.951056 0.309018 0
    outer loop
      vertex -2.44537 -0.519779 0
      vertex -2.28386 -1.01684 4
      vertex -2.28386 -1.01684 0
    endloop
  endfacet
  facet normal 0.951056 -0.309018 0
    outer loop
      vertex -2.44537 0.519779 4
      vertex -2.28386 1.01684 0
      vertex -2.28386 1.01684 4
    endloop
  endfacet
  facet normal 0.951056 -0.309018 0
    outer loop
      vertex -2.28386 1.01684 0
      vertex -2.44537 0.519779 4
      vertex -2.44537 0.519779 0
    endloop
  endfacet
  facet normal 0.866025 -0.5 0
    outer loop
      vertex -2.28386 1.01684 4
      vertex -2.02254 1.46946 0
      vertex -2.02254 1.46946 4
    endloop
  endfacet
  facet normal 0.866025 -0.5 0
    outer loop
      vertex -2.02254 1.46946 0
      vertex -2.28386 1.01684 4
      vertex -2.28386 1.01684 0
    endloop
  endfacet
  facet normal 0.587785 -0.809017 0
    outer loop
      vertex -1.67283 1.85786 0
      vertex -1.25 2.16506 4
      vertex -1.67283 1.85786 4
    endloop
  endfacet
  facet normal 0.587785 -0.809017 0
    outer loop
      vertex -1.25 2.16506 4
      vertex -1.67283 1.85786 0
      vertex -1.25 2.16506 0
    endloop
  endfacet
  facet normal -0.866025 -0.5 0
    outer loop
      vertex 12.2839 1.01684 0
      vertex 12.0225 1.46946 4
      vertex 12.0225 1.46946 0
    endloop
  endfacet
  facet normal -0.866025 -0.5 0
    outer loop
      vertex 12.0225 1.46946 4
      vertex 12.2839 1.01684 0
      vertex 12.2839 1.01684 4
    endloop
  endfacet
  facet normal -0.207912 -0.978148 0
    outer loop
      vertex 10.2613 2.4863 0
      vertex 10.7725 2.37764 4
      vertex 10.2613 2.4863 4
    endloop
  endfacet
  facet normal -0.207912 -0.978148 -0
    outer loop
      vertex 10.7725 2.37764 4
      vertex 10.2613 2.4863 0
      vertex 10.7725 2.37764 0
    endloop
  endfacet
  facet normal -0.743145 0.669131 0
    outer loop
      vertex 11.6728 -1.85786 0
      vertex 12.0225 -1.46946 4
      vertex 12.0225 -1.46946 0
    endloop
  endfacet
  facet normal -0.743145 0.669131 0
    outer loop
      vertex 12.0225 -1.46946 4
      vertex 11.6728 -1.85786 0
      vertex 11.6728 -1.85786 4
    endloop
  endfacet
  facet normal -0.406736 0.913546 0
    outer loop
      vertex 11.25 -2.16506 0
      vertex 10.7725 -2.37764 4
      vertex 11.25 -2.16506 4
    endloop
  endfacet
  facet normal -0.406736 0.913546 0
    outer loop
      vertex 10.7725 -2.37764 4
      vertex 11.25 -2.16506 0
      vertex 10.7725 -2.37764 0
    endloop
  endfacet
  facet normal 0.207912 0.978148 -0
    outer loop
      vertex -0.261321 -2.4863 0
      vertex -0.772542 -2.37764 4
      vertex -0.261321 -2.4863 4
    endloop
  endfacet
  facet normal 0.207912 0.978148 0
    outer loop
      vertex -0.772542 -2.37764 4
      vertex -0.261321 -2.4863 0
      vertex -0.772542 -2.37764 0
    endloop
  endfacet
  facet normal 0.866025 0.5 0
    outer loop
      vertex -2.02254 -1.46946 4
      vertex -2.28386 -1.01684 0
      vertex -2.28386 -1.01684 4
    endloop
  endfacet
  facet normal 0.866025 0.5 0
    outer loop
      vertex -2.28386 -1.01684 0
      vertex -2.02254 -1.46946 4
      vertex -2.02254 -1.46946 0
    endloop
  endfacet
  facet normal 0.207912 -0.978148 0
    outer loop
      vertex -0.772542 2.37764 0
      vertex -0.261321 2.4863 4
      vertex -0.772542 2.37764 4
    endloop
  endfacet
  facet normal 0.207912 -0.978148 0
    outer loop
      vertex -0.261321 2.4863 4
      vertex -0.772542 2.37764 0
      vertex -0.261321 2.4863 0
    endloop
  endfacet
  facet normal -0.587786 -0.809017 0
    outer loop
      vertex 11.25 2.16506 0
      vertex 11.6728 1.85786 4
      vertex 11.25 2.16506 4
    endloop
  endfacet
  facet normal -0.587786 -0.809017 -0
    outer loop
      vertex 11.6728 1.85786 4
      vertex 11.25 2.16506 0
      vertex 11.6728 1.85786 0
    endloop
  endfacet
  facet normal -0.951056 0.309018 0
    outer loop
      vertex 12.2839 -1.01684 0
      vertex 12.4454 -0.519779 4
      vertex 12.4454 -0.519779 0
    endloop
  endfacet
  facet normal -0.951056 0.309018 0
    outer loop
      vertex 12.4454 -0.519779 4
      vertex 12.2839 -1.01684 0
      vertex 12.2839 -1.01684 4
    endloop
  endfacet
  facet normal -0.866025 0.5 0
    outer loop
      vertex 12.0225 -1.46946 0
      vertex 12.2839 -1.01684 4
      vertex 12.2839 -1.01684 0
    endloop
  endfacet
  facet normal -0.866025 0.5 0
    outer loop
      vertex 12.2839 -1.01684 4
      vertex 12.0225 -1.46946 0
      vertex 12.0225 -1.46946 4
    endloop
  endfacet
  facet normal 0.406737 -0.913545 0
    outer loop
      vertex -1.25 2.16506 0
      vertex -0.772542 2.37764 4
      vertex -1.25 2.16506 4
    endloop
  endfacet
  facet normal 0.406737 -0.913545 0
    outer loop
      vertex -0.772542 2.37764 4
      vertex -1.25 2.16506 0
      vertex -0.772542 2.37764 0
    endloop
  endfacet
  facet normal -0.406736 -0.913546 0
    outer loop
      vertex 10.7725 2.37764 0
      vertex 11.25 2.16506 4
      vertex 10.7725 2.37764 4
    endloop
  endfacet
  facet normal -0.406736 -0.913546 -0
    outer loop
      vertex 11.25 2.16506 4
      vertex 10.7725 2.37764 0
      vertex 11.25 2.16506 0
    endloop
  endfacet
  facet normal 1 -0 0
    outer loop
      vertex 3.5 2.4863 4
      vertex 3.5 4.97261 0
      vertex 3.5 4.97261 4
    endloop
  endfacet
  facet normal 1 0 0
    outer loop
      vertex 3.5 4.97261 0
      vertex 3.5 2.4863 4
      vertex 3.5 2.4863 0
    endloop
  endfacet
  facet normal -1 0 0
    outer loop
      vertex 6.5 2.4863 0
      vertex 6.5 4.97261 4
      vertex 6.5 4.97261 0
    endloop
  endfacet
  facet normal -1 -0 0
    outer loop
      vertex 6.5 4.97261 4
      vertex 6.5 2.4863 0
      vertex 6.5 2.4863 4
    endloop
  endfacet
endsolid OpenSCAD_Model
